<mxfile host="app.diagrams.net" agent="Mozilla/5.0 (Windows NT 10.0; Win64; x64) AppleWebKit/537.36 (KHTML, like Gecko) Chrome/135.0.0.0 Safari/537.36" version="26.2.12">
  <diagram name="Page-1" id="h7BKK9_MSoFrJpL1vBmY">
    <mxGraphModel dx="1044" dy="562" grid="1" gridSize="10" guides="1" tooltips="1" connect="1" arrows="1" fold="1" page="1" pageScale="1" pageWidth="850" pageHeight="1100" math="0" shadow="0">
      <root>
        <mxCell id="0" />
        <mxCell id="1" parent="0" />
        <mxCell id="hEdKbJp5dlWcERPPxAvx-1" value="" style="edgeStyle=orthogonalEdgeStyle;rounded=0;orthogonalLoop=1;jettySize=auto;html=1;fontSize=14;" edge="1" parent="1" source="hEdKbJp5dlWcERPPxAvx-2" target="hEdKbJp5dlWcERPPxAvx-5">
          <mxGeometry relative="1" as="geometry" />
        </mxCell>
        <mxCell id="hEdKbJp5dlWcERPPxAvx-2" value="Start" style="strokeWidth=2;html=1;shape=mxgraph.flowchart.start_1;whiteSpace=wrap;fontSize=14;" vertex="1" parent="1">
          <mxGeometry x="375" y="310" width="100" height="60" as="geometry" />
        </mxCell>
        <mxCell id="hEdKbJp5dlWcERPPxAvx-3" value="End" style="strokeWidth=2;html=1;shape=mxgraph.flowchart.start_1;whiteSpace=wrap;fontSize=14;" vertex="1" parent="1">
          <mxGeometry x="375" y="970" width="100" height="60" as="geometry" />
        </mxCell>
        <mxCell id="hEdKbJp5dlWcERPPxAvx-4" value="" style="edgeStyle=orthogonalEdgeStyle;rounded=0;orthogonalLoop=1;jettySize=auto;html=1;fontSize=14;" edge="1" parent="1" source="hEdKbJp5dlWcERPPxAvx-5" target="hEdKbJp5dlWcERPPxAvx-10">
          <mxGeometry relative="1" as="geometry" />
        </mxCell>
        <mxCell id="hEdKbJp5dlWcERPPxAvx-5" value="int i = 1" style="whiteSpace=wrap;html=1;strokeWidth=2;fontSize=14;" vertex="1" parent="1">
          <mxGeometry x="365" y="410" width="120" height="60" as="geometry" />
        </mxCell>
        <mxCell id="hEdKbJp5dlWcERPPxAvx-6" value="" style="edgeStyle=orthogonalEdgeStyle;rounded=0;orthogonalLoop=1;jettySize=auto;html=1;fontSize=14;" edge="1" parent="1" source="hEdKbJp5dlWcERPPxAvx-10" target="hEdKbJp5dlWcERPPxAvx-12">
          <mxGeometry relative="1" as="geometry" />
        </mxCell>
        <mxCell id="hEdKbJp5dlWcERPPxAvx-7" value="True" style="edgeLabel;html=1;align=center;verticalAlign=middle;resizable=0;points=[];fontSize=14;" vertex="1" connectable="0" parent="hEdKbJp5dlWcERPPxAvx-6">
          <mxGeometry x="-0.04" relative="1" as="geometry">
            <mxPoint as="offset" />
          </mxGeometry>
        </mxCell>
        <mxCell id="hEdKbJp5dlWcERPPxAvx-8" value="" style="edgeStyle=orthogonalEdgeStyle;rounded=0;orthogonalLoop=1;jettySize=auto;html=1;fontSize=14;" edge="1" parent="1" source="hEdKbJp5dlWcERPPxAvx-10" target="hEdKbJp5dlWcERPPxAvx-16">
          <mxGeometry relative="1" as="geometry">
            <Array as="points">
              <mxPoint x="630" y="550" />
              <mxPoint x="630" y="880" />
            </Array>
          </mxGeometry>
        </mxCell>
        <mxCell id="hEdKbJp5dlWcERPPxAvx-9" value="False" style="edgeLabel;html=1;align=center;verticalAlign=middle;resizable=0;points=[];fontSize=14;" vertex="1" connectable="0" parent="hEdKbJp5dlWcERPPxAvx-8">
          <mxGeometry x="-0.8012" y="2" relative="1" as="geometry">
            <mxPoint as="offset" />
          </mxGeometry>
        </mxCell>
        <mxCell id="hEdKbJp5dlWcERPPxAvx-10" value="i &amp;lt;&amp;nbsp; 10" style="rhombus;whiteSpace=wrap;html=1;strokeWidth=2;fontSize=14;" vertex="1" parent="1">
          <mxGeometry x="385" y="510" width="80" height="80" as="geometry" />
        </mxCell>
        <mxCell id="hEdKbJp5dlWcERPPxAvx-11" value="" style="edgeStyle=orthogonalEdgeStyle;rounded=0;orthogonalLoop=1;jettySize=auto;html=1;fontSize=14;" edge="1" parent="1" source="hEdKbJp5dlWcERPPxAvx-12" target="hEdKbJp5dlWcERPPxAvx-14">
          <mxGeometry relative="1" as="geometry" />
        </mxCell>
        <mxCell id="hEdKbJp5dlWcERPPxAvx-12" value="Print i" style="shape=parallelogram;perimeter=parallelogramPerimeter;whiteSpace=wrap;html=1;fixedSize=1;strokeWidth=2;fontSize=14;" vertex="1" parent="1">
          <mxGeometry x="365" y="630" width="120" height="60" as="geometry" />
        </mxCell>
        <mxCell id="hEdKbJp5dlWcERPPxAvx-13" value="" style="edgeStyle=orthogonalEdgeStyle;rounded=0;orthogonalLoop=1;jettySize=auto;html=1;entryX=0;entryY=0.5;entryDx=0;entryDy=0;fontSize=14;" edge="1" parent="1" source="hEdKbJp5dlWcERPPxAvx-14" target="hEdKbJp5dlWcERPPxAvx-10">
          <mxGeometry relative="1" as="geometry">
            <mxPoint x="285" y="770" as="targetPoint" />
            <Array as="points">
              <mxPoint x="240" y="770" />
              <mxPoint x="240" y="550" />
            </Array>
          </mxGeometry>
        </mxCell>
        <mxCell id="hEdKbJp5dlWcERPPxAvx-14" value="i = i + 2" style="whiteSpace=wrap;html=1;strokeWidth=2;fontSize=14;" vertex="1" parent="1">
          <mxGeometry x="365" y="740" width="120" height="60" as="geometry" />
        </mxCell>
        <mxCell id="hEdKbJp5dlWcERPPxAvx-15" value="" style="edgeStyle=orthogonalEdgeStyle;rounded=0;orthogonalLoop=1;jettySize=auto;html=1;fontSize=14;" edge="1" parent="1" source="hEdKbJp5dlWcERPPxAvx-16" target="hEdKbJp5dlWcERPPxAvx-3">
          <mxGeometry relative="1" as="geometry" />
        </mxCell>
        <mxCell id="hEdKbJp5dlWcERPPxAvx-16" value="" style="ellipse;whiteSpace=wrap;html=1;strokeWidth=2;fontSize=14;" vertex="1" parent="1">
          <mxGeometry x="385" y="840" width="80" height="80" as="geometry" />
        </mxCell>
        <mxCell id="hEdKbJp5dlWcERPPxAvx-18" value="&lt;div style=&quot;color: #cccccc;background-color: #1f1f1f;font-family: Consolas, &#39;Courier New&#39;, monospace;font-weight: normal;font-size: 14px;line-height: 19px;white-space: pre;&quot;&gt;&lt;div&gt;&lt;span style=&quot;color: #6a9955;&quot;&gt;// Print 1 3 5 7 9&lt;/span&gt;&lt;/div&gt;&lt;br&gt;&lt;div&gt;&lt;span style=&quot;color: #6a9955;&quot;&gt;// Step 1: Start&lt;/span&gt;&lt;/div&gt;&lt;div&gt;&lt;span style=&quot;color: #6a9955;&quot;&gt;// Step 2: Intialize variable i by 1&lt;/span&gt;&lt;/div&gt;&lt;div&gt;&lt;span style=&quot;color: #6a9955;&quot;&gt;// Step 3: Repeat steps 4-6, if the condition true (i &amp;lt; 10)&lt;/span&gt;&lt;/div&gt;&lt;div&gt;&lt;span style=&quot;color: #6a9955;&quot;&gt;// Step 4: Print i&lt;/span&gt;&lt;/div&gt;&lt;div&gt;&lt;span style=&quot;color: #6a9955;&quot;&gt;// Step 5: Increment i by 2, i = i + 2&lt;/span&gt;&lt;/div&gt;&lt;div&gt;&lt;span style=&quot;color: #6a9955;&quot;&gt;// Step 6: Go to step 3&lt;/span&gt;&lt;/div&gt;&lt;div&gt;&lt;span style=&quot;color: #6a9955;&quot;&gt;// Step 7: End&lt;/span&gt;&lt;/div&gt;&lt;/div&gt;" style="text;whiteSpace=wrap;html=1;" vertex="1" parent="1">
          <mxGeometry x="50" y="40" width="490" height="190" as="geometry" />
        </mxCell>
      </root>
    </mxGraphModel>
  </diagram>
</mxfile>
